<svg width="26" height="25" viewBox="0 0 37 38" fill="none" xmlns="http://www.w3.org/2000/svg">
<path d="M31.2941 28.1958C30.8351 29.5588 30.4335 30.7787 30.009 31.9986C29.6705 32.9998 29.309 33.9926 28.9878 35.0022C28.957 35.1567 28.8801 35.2989 28.7667 35.4107C28.6534 35.5225 28.5087 35.599 28.3509 35.6304C23.9619 36.7746 19.5156 37.3944 14.9831 36.8363C9.81962 36.1997 5.55111 34.0319 2.93492 29.4017C1.32563 26.5356 0.815011 23.4142 1.03303 20.1975C1.44898 14.0782 4.05655 9.00494 8.90453 5.07591C11.8506 2.68651 15.2872 1.45816 19.0681 1.09358C21.6756 0.843983 24.2689 0.891658 26.8133 1.58436C31.9941 2.98658 35.4479 6.92684 36.1105 12.1431C36.4921 15.1411 36.1105 18.0858 35.6143 21.0332C35.554 21.4006 35.3647 21.4118 35.0778 21.4118C33.6865 21.4118 32.2924 21.4118 30.9011 21.4118C24.2077 21.4118 17.5142 21.4118 10.8208 21.4118C10.2815 21.4118 10.1237 21.5408 10.1151 22.0821C10.0405 26.4907 12.5305 29.4017 16.9625 30.1449C20.2385 30.7058 23.4255 30.2206 26.6068 29.542C28.1977 29.1942 29.7635 28.7445 31.2941 28.1958ZM19.5901 15.688H26.0159C27.978 15.688 27.978 15.688 28.044 13.7697C28.1788 9.88554 25.7491 7.35312 21.799 7.13718C17.0744 6.87637 12.6194 10.2221 11.4719 15.186C11.3773 15.5982 11.4719 15.6992 11.9022 15.6964C14.4582 15.6767 17.0084 15.688 19.5901 15.688Z" fill="#114185"/>
</svg>
