<svg width="24" height="25" viewBox="0 0 35 36" fill="none" xmlns="http://www.w3.org/2000/svg">
<path d="M5.22735 8.72569C6.05638 6.2746 6.84239 3.95812 7.61118 1.66127C7.70585 1.38082 7.89804 1.31633 8.14761 1.27145C12.2985 0.514252 16.4666 -0.130777 20.7064 0.0739476C23.6984 0.211366 26.5756 0.808715 29.1517 2.37921C32.6456 4.50498 34.2435 7.70767 34.4701 11.6339C34.602 13.8915 34.2263 16.121 33.8964 18.3309C33.2108 22.8349 32.5051 27.3332 31.8424 31.8372C31.8243 32.0261 31.7546 32.2067 31.6405 32.3601C31.5265 32.5136 31.3723 32.6342 31.1941 32.7094C28.4919 34.1593 25.5601 34.9529 22.5481 35.4353C18.8205 36.0667 15.0185 36.1612 11.2629 35.7157C8.13327 35.3315 5.21588 34.3808 2.94393 32.1317C1.95797 31.1447 1.1926 29.9681 0.696358 28.6767C0.200117 27.3852 -0.016162 26.007 0.061248 24.6295C0.138658 23.252 0.508065 21.9052 1.14603 20.6747C1.784 19.4441 2.6766 18.3566 3.76722 17.4812C6.09654 15.6078 8.85043 14.6767 11.7506 14.0738C16.1425 13.1651 20.5745 13.2885 25.0094 13.6195C25.563 13.6587 25.6835 13.4933 25.7093 13.0109C25.9073 9.62872 23.8304 7.20007 20.1844 6.54663C17.6542 6.09231 15.17 6.48493 12.6858 6.88316C10.151 7.2909 7.65598 7.90727 5.22735 8.72569ZM20.7409 18.9283C19.1621 18.9182 17.5851 19.0317 16.0248 19.2676C14.3381 19.5481 12.7001 19.9828 11.3404 21.0765C9.80281 22.3133 9.3926 23.9735 9.69667 25.802C9.98353 27.4707 11.1769 28.3849 12.7231 28.9234C13.4318 29.1671 14.1691 29.3226 14.9176 29.3861C17.6829 29.6469 20.3679 29.1758 23.0358 28.5307C23.2167 28.5074 23.3826 28.42 23.5021 28.2851C23.6216 28.1502 23.6863 27.9772 23.6841 27.7988C24.0484 25.1486 24.4098 22.4956 24.8114 19.851C24.8803 19.3938 24.7254 19.3069 24.3352 19.234C23.1469 19.0422 21.9452 18.94 20.7409 18.9283Z" fill="#114185"/>
</svg>
