<svg width="27" height="24" viewBox="0 0 30 36" fill="none" xmlns="http://www.w3.org/2000/svg">
<path d="M13.7887 35.9485C9.57646 35.9211 5.39543 35.2396 1.40199 33.9293C1.00325 33.7947 0.897113 33.6825 1.04054 33.259C1.6965 31.3165 2.32473 29.3646 2.92523 27.4034C3.0744 26.921 3.24939 26.9602 3.64526 27.1453C7.48085 28.9795 11.8129 29.5766 16.0176 28.8505C17.004 28.7036 17.9403 28.3286 18.7486 27.7567C19.1225 27.5033 19.4335 27.1711 19.6588 26.7847C19.8841 26.3983 20.0179 25.9673 20.0504 25.5237C20.0829 25.08 20.0132 24.6349 19.8465 24.221C19.6798 23.8071 19.4203 23.4351 19.0871 23.1322C18.3579 22.4723 17.5394 21.9137 16.6545 21.4719C14.46 20.2716 12.2282 19.147 10.1427 17.756C4.54027 14.0065 5.22299 6.20169 10.7394 2.77745C13.1834 1.26024 15.8598 0.500236 18.7027 0.211377C23.4416 -0.268184 28.0228 0.525472 32.538 1.85478C32.9511 1.97537 33.0572 2.08475 32.8995 2.51383C32.2196 4.35636 31.5627 6.2101 30.9459 8.07506C30.7824 8.56584 30.5874 8.52938 30.2001 8.3555C27.3758 7.05271 24.2836 6.40032 21.1611 6.44848C19.6464 6.48494 18.1691 6.72892 16.8868 7.60391C16.3417 7.94372 15.9258 8.44907 15.703 9.04235C15.4802 9.63562 15.4627 10.284 15.6533 10.8879C15.9004 11.5652 16.3667 12.1451 16.9815 12.5398C18.3097 13.5157 19.83 14.1748 21.2844 14.9544C23.0639 15.8627 24.7623 16.9152 26.3619 18.101C31.0894 21.7692 30.6103 28.7579 26.075 32.3083C23.149 34.594 19.7239 35.5082 16.0807 35.8335C15.1656 35.9121 14.2563 35.9261 13.7887 35.9485Z" fill="#114185"/>
</svg>
