<svg width="22" height="24" viewBox="0 0 34 36" fill="none" xmlns="http://www.w3.org/2000/svg">
<path d="M29.0863 27.6922C28.94 28.5335 28.5699 29.2879 28.2974 30.0816C27.7782 31.5932 27.2245 33.0908 26.711 34.6052C26.6733 34.7566 26.5874 34.8924 26.4658 34.9932C26.3442 35.094 26.193 35.1545 26.034 35.1661C22.5917 35.727 19.1121 36.0831 15.6152 35.8251C10.3972 35.4409 5.92214 33.5815 2.84698 29.2346C0.678302 26.1722 -0.0876198 22.6918 0.104578 19.0264C0.425864 12.9127 3.07647 7.90957 7.96173 4.07869C10.7615 1.8856 14.0547 0.8087 17.563 0.359988C21.9058 -0.241772 26.328 0.0166881 30.5665 1.11999C31.3754 1.33594 32.1557 1.63882 32.9503 1.89122C33.2372 1.98096 33.3117 2.10155 33.2056 2.40724C32.5286 4.34231 31.8574 6.28299 31.2234 8.23209C31.0828 8.66117 30.8849 8.57423 30.6009 8.46486C28.5754 7.65287 26.4305 7.16154 24.2469 7.00934C19.5223 6.74853 15.4144 8.01895 12.4655 11.8639C9.70299 15.4676 9.27556 21.4523 12.2331 25.07C14.0719 27.3136 16.4988 28.5027 19.3788 28.8308C22.4856 29.1842 25.489 28.598 28.4552 27.7651C28.6445 27.7118 28.8367 27.6754 29.0289 27.6305L29.0863 27.6922Z" fill="#114185"/>
</svg>
