<svg width="154" height="46" viewBox="0 0 154 46" fill="none" xmlns="http://www.w3.org/2000/svg">
<path fill-rule="evenodd" clip-rule="evenodd" d="M21.8481 0.116967C21.6344 0.242682 21.0874 0.793225 20.6931 1.27953C20.1214 1.98456 19.9354 2.20958 19.7695 2.39757C19.6736 2.50594 19.3953 2.84604 19.1504 3.15304C18.9056 3.46003 18.5995 3.82969 18.4705 3.97392C18.3412 4.11856 18.1213 4.38457 17.9816 4.56506C17.8414 4.74595 17.6509 4.97649 17.5577 5.07777C17.4649 5.17866 17.3887 5.27482 17.3887 5.29097C17.3887 5.30713 17.3378 5.37294 17.2762 5.43718C17.2146 5.50142 17.0341 5.71344 16.8751 5.90812C16.7165 6.1028 16.5359 6.31639 16.4743 6.3826C16.4123 6.44881 16.3619 6.51462 16.3619 6.5292C16.3619 6.54378 16.276 6.65492 16.1713 6.7763L15.9803 6.99699L15.0321 6.91226C14.5108 6.86576 13.5714 6.78418 12.945 6.73098C12.3186 6.67778 11.2933 6.59029 10.667 6.53669C7.29012 6.24822 7.32169 6.24861 6.81272 6.51659C6.59519 6.63127 6.47738 6.75186 6.36535 6.97452C6.10355 7.49551 6.10316 7.4632 6.38498 10.9198C6.43734 11.5609 6.52281 12.6104 6.57517 13.2516C6.62715 13.8928 6.70761 14.854 6.75381 15.3879C6.83659 16.3393 6.83582 16.3598 6.70723 16.4504C6.63523 16.5009 6.47238 16.6408 6.34533 16.7606C6.10701 16.9864 6.0458 17.0396 5.45251 17.5369C5.25886 17.6993 4.98512 17.9401 4.84383 18.0721C4.70292 18.2041 4.44304 18.4295 4.26633 18.5726C4.09 18.7156 3.86477 18.9107 3.76583 19.0061C3.66688 19.1015 3.5587 19.1795 3.5252 19.1795C3.49171 19.1795 3.46399 19.2016 3.46399 19.2288C3.4636 19.2555 3.23299 19.4699 2.95117 19.7048C2.66935 19.9397 2.43835 20.1541 2.43835 20.1809C2.43796 20.2081 2.39677 20.2301 2.34672 20.2301C2.29667 20.2301 2.24623 20.2569 2.23468 20.29C2.22275 20.3227 1.99714 20.5344 1.73341 20.7598C1.4693 20.9856 1.22021 21.2027 1.17901 21.2422C1.1382 21.2816 0.912207 21.4885 0.676972 21.7017C-0.265893 22.5553 -0.273978 23.4353 0.653487 24.2877C0.800172 24.4225 0.965337 24.5793 1.02116 24.6365C1.0766 24.6936 1.36766 24.9442 1.66758 25.1937C1.96749 25.4428 2.22737 25.6638 2.24508 25.6847C2.26279 25.7056 2.58041 25.9831 2.95117 26.3011C3.32154 26.6191 3.63454 26.9052 3.64609 26.9371C3.65803 26.9695 3.70615 26.9955 3.75312 26.9955C3.80009 26.9955 3.84822 27.0215 3.86015 27.0538C3.8717 27.0857 4.09808 27.295 4.36258 27.5188C4.62746 27.7427 5.01438 28.0784 5.22267 28.2652C5.43095 28.452 5.67889 28.6637 5.7736 28.7362C5.86831 28.8083 6.14744 29.0518 6.39345 29.2773L6.84082 29.6871L6.75997 30.3937C6.71531 30.7827 6.67835 31.2631 6.67758 31.4617C6.67681 31.6603 6.63254 32.281 6.57902 32.841C6.52551 33.401 6.43927 34.3914 6.38691 35.0416C6.33493 35.6919 6.26217 36.5931 6.22521 37.0448C6.0354 39.3715 6.43003 39.8416 8.42818 39.6702C8.85668 39.6335 9.72717 39.5595 10.3624 39.5055C11.4323 39.4144 13.4647 39.2347 15.1903 39.0787C15.8933 39.0152 16.1694 39.0574 16.1694 39.228C16.1694 39.2556 16.2198 39.3317 16.2818 39.3971C16.3434 39.4625 16.524 39.6745 16.6826 39.8676C16.8416 40.0611 17.0291 40.2858 17.0999 40.3666C17.2739 40.5656 17.6251 40.9971 18.032 41.511C18.218 41.7459 18.4039 41.9677 18.4459 42.0036C18.4878 42.0399 18.72 42.3208 18.9625 42.6278C19.373 43.1476 19.5851 43.4026 19.83 43.669C19.8842 43.7285 20.0575 43.9398 20.2146 44.1384C20.5422 44.553 20.4995 44.5021 21.0462 45.1283C21.9428 46.1561 23.0863 46.324 23.6172 45.5059C23.6599 45.4401 24.0938 44.9175 24.2832 44.7031C24.3556 44.6211 24.5447 44.3961 24.7037 44.2026C24.8623 44.0095 25.0429 43.7975 25.1045 43.7321C25.1664 43.6667 25.2169 43.5981 25.2169 43.58C25.2169 43.5618 25.2673 43.4937 25.3293 43.4282C25.3909 43.3628 25.5715 43.1504 25.7301 42.9569C25.8891 42.763 26.0696 42.5589 26.1312 42.5029C26.1928 42.4473 26.2437 42.3638 26.2437 42.3177C26.2437 42.2712 26.2652 42.2334 26.2918 42.2334C26.318 42.2334 26.4843 42.0497 26.6606 41.8255C26.837 41.6016 27.0537 41.3403 27.1419 41.245C27.3063 41.0672 27.3509 41.0133 27.8476 40.3933C28.0062 40.1955 28.2164 39.9445 28.315 39.8361C28.4135 39.7277 28.6014 39.496 28.7323 39.321L28.9706 39.0026L29.2913 39.0416C29.468 39.0629 29.8577 39.0968 30.1576 39.1165C30.4575 39.1358 31.2949 39.2083 32.0187 39.2773C32.7421 39.3462 33.8971 39.4495 34.5851 39.5066C35.2735 39.5642 36.1693 39.6406 36.5759 39.6769C38.6938 39.8653 38.9791 39.3533 38.6653 35.9283C38.6106 35.3321 38.5217 34.2976 38.4678 33.6292C38.4139 32.9608 38.31 31.7975 38.2368 31.0436C38.1637 30.2897 38.1278 29.6524 38.1571 29.6272C38.1867 29.602 38.3692 29.4503 38.5629 29.2903C38.7565 29.1299 38.9733 28.9379 39.0441 28.8635C39.115 28.789 39.3752 28.564 39.6224 28.363C39.8692 28.162 40.1449 27.9271 40.235 27.8412C40.3247 27.7553 40.5557 27.5523 40.7482 27.39C40.9407 27.2276 41.1305 27.0648 41.1701 27.0286C41.2098 26.9923 41.3803 26.8445 41.5493 26.6999C41.718 26.5553 41.8878 26.4075 41.9263 26.3712C41.9648 26.335 42.1553 26.1738 42.3494 26.013C42.5434 25.8522 42.7486 25.6749 42.8052 25.6193C42.9838 25.4435 43.2676 25.1988 43.6326 24.9064C45.459 23.4435 45.4725 22.6664 43.6969 21.1578C43.4324 20.9328 43.1436 20.6825 43.0551 20.601C42.9669 20.5198 42.6504 20.2479 42.3521 19.9968C42.0537 19.7458 41.7361 19.4703 41.6464 19.3844C41.5567 19.2985 41.2956 19.0731 41.0662 18.8839C40.8367 18.6944 40.5753 18.4689 40.4856 18.383C40.3431 18.2471 40.034 17.9803 39.468 17.5046C39.3818 17.4321 39.2586 17.3214 39.1943 17.2583C39.1296 17.1949 39.0642 17.1432 39.0488 17.1432C39.0334 17.1432 38.8963 17.0285 38.7442 16.8886C38.5918 16.7483 38.385 16.5627 38.2842 16.4756L38.1009 16.3172L38.2333 15.0061C38.3057 14.2849 38.4108 13.1038 38.4666 12.3814C38.5225 11.6587 38.6126 10.5946 38.6668 10.0169C38.9941 6.53866 38.7281 6.13669 36.2537 6.36881C35.8829 6.40349 35.0167 6.47797 34.3287 6.53433C33.0867 6.63561 31.7707 6.74989 29.9454 6.91502L28.9956 7.00093L28.6961 6.63679C28.5313 6.43659 28.3331 6.19896 28.2557 6.10871C28.1779 6.01846 27.9946 5.79659 27.8476 5.6161C27.4961 5.18378 27.0618 4.66004 26.9813 4.57058C26.9459 4.53156 26.7869 4.33728 26.6283 4.13944C26.4697 3.94122 26.2822 3.70713 26.2113 3.61885C26.1409 3.53097 26.0396 3.41038 25.9869 3.35126C25.9337 3.29175 25.7328 3.05294 25.5395 2.82042C25.3466 2.58791 25.1245 2.32387 25.0463 2.23362C24.9682 2.14338 24.726 1.84781 24.5081 1.57668C24.2898 1.30594 24.0857 1.07421 24.0546 1.06199C24.0234 1.05017 23.9976 1.0151 23.9976 0.984359C23.9976 0.894112 23.3908 0.282879 23.1556 0.135883C22.8718 -0.041063 22.1349 -0.0517034 21.8481 0.116967ZM22.9142 6.2892C23.1309 6.5694 23.3335 6.80822 23.3643 6.82044C23.3951 6.83226 23.4201 6.8693 23.4201 6.90241C23.4201 6.93551 23.4709 7.01669 23.5325 7.0829C23.8032 7.37295 24.0619 7.70241 24.0619 7.75719C24.0619 7.7899 24.0854 7.8163 24.1138 7.8163C24.1423 7.8163 24.3067 8.01335 24.4792 8.25374C25.1137 9.13847 25.2685 9.24172 25.578 8.98911C25.618 8.9564 25.9214 8.78694 26.2518 8.61236C26.5825 8.43778 27.0117 8.19857 27.2054 8.08074C27.3994 7.9633 27.6158 7.84034 27.6866 7.80802C27.7575 7.77571 28.0466 7.61807 28.3288 7.45807C28.6114 7.29807 28.8594 7.16526 28.8801 7.16329C28.9167 7.15975 28.9829 7.35797 29.1739 8.04645C29.3645 8.73295 29.4727 9.10892 29.5805 9.45847C29.6417 9.65709 29.7348 9.96764 29.7872 10.1481C29.84 10.3286 29.9347 10.6451 29.9978 10.8516L30.1125 11.2264L30.6323 11.1917C30.9183 11.1724 31.4543 11.1137 31.8239 11.0612C32.1931 11.0084 32.8426 10.9371 33.2676 10.902C33.6923 10.8673 34.1215 10.8208 34.2212 10.7992L34.4026 10.7594L34.3637 11.3075C34.3283 11.8057 34.2894 12.2069 34.0746 14.2861C33.9733 15.2618 33.9498 15.1881 34.4087 15.328C34.6293 15.395 34.9685 15.5022 35.1626 15.5653C35.5849 15.7032 35.9853 15.8242 36.9274 16.0993C37.3155 16.2124 37.712 16.3342 37.8083 16.3704L37.9835 16.4358L37.7178 16.9371C37.5719 17.213 37.3575 17.6161 37.242 17.8329C37.1261 18.0496 36.9567 18.3748 36.8647 18.5553C36.773 18.7361 36.6325 19.0021 36.5528 19.1464C36.4731 19.291 36.313 19.5858 36.1967 19.8018L35.9853 20.1943L36.1674 20.3503C36.2679 20.4362 36.4111 20.5592 36.4862 20.6238C36.5613 20.6881 36.82 20.8993 37.0614 21.0932C37.3024 21.2867 37.5731 21.5153 37.6628 21.6004C37.7525 21.6855 37.9484 21.8455 38.0982 21.9562C38.2484 22.067 38.3712 22.1817 38.3712 22.212C38.3712 22.242 38.4143 22.2664 38.4674 22.2664C38.5202 22.2664 38.5637 22.29 38.5637 22.3192C38.5637 22.3484 38.7358 22.5032 38.946 22.664C39.4076 23.0163 39.4018 22.9742 39.028 23.2658C38.8601 23.397 38.6507 23.5677 38.5629 23.6449C38.2041 23.9598 38.1271 24.0248 37.6651 24.402C37.4006 24.6183 37.1549 24.8276 37.1199 24.867C37.0845 24.9068 36.8735 25.0794 36.651 25.2512C35.948 25.7943 35.9614 25.7616 36.2317 26.2672C36.3592 26.5052 36.539 26.8477 36.6314 27.0282C36.7234 27.2091 36.815 27.3714 36.8346 27.3896C36.8543 27.4077 36.9282 27.5405 36.9986 27.6851C37.2431 28.1856 37.8106 29.2619 37.898 29.3911C38.0277 29.5819 38.0104 29.6122 37.7455 29.6615C37.6131 29.6859 37.4037 29.7431 37.2801 29.7888C37.1569 29.8341 36.8246 29.9354 36.5424 30.0138C36.2598 30.0922 35.928 30.1959 35.8044 30.244C35.6808 30.292 35.392 30.3823 35.1626 30.4445C34.9331 30.5068 34.6367 30.5986 34.5038 30.6483C34.3706 30.6983 34.2047 30.7393 34.1346 30.7393C33.9849 30.7393 33.9802 30.8083 34.0699 31.6792C34.234 33.269 34.3279 34.2325 34.3649 34.7066L34.4053 35.2256L34.0622 35.1807C33.8736 35.1559 33.4012 35.1086 33.0131 35.0759C32.625 35.0428 32.0907 34.9864 31.8262 34.9506C31.5613 34.9147 31.0669 34.8662 30.7274 34.843L30.1098 34.8004L30.0305 35.0195C29.9866 35.1401 29.9281 35.3419 29.9004 35.4684C29.8723 35.5949 29.8195 35.7868 29.783 35.8952C29.746 36.0036 29.6124 36.4469 29.4854 36.8804C29.3587 37.3139 29.2159 37.8018 29.1681 37.9642C29.1204 38.1269 29.0476 38.387 29.0064 38.5423C28.9194 38.8698 28.8832 38.8694 28.2969 38.5332C28.1028 38.4217 27.843 38.2759 27.7194 38.2085C27.5958 38.1415 27.2928 37.9725 27.0456 37.8337C26.7985 37.6946 26.38 37.4676 26.1151 37.3293C25.8506 37.191 25.6188 37.0574 25.6007 37.0325C25.3709 36.7216 25.2084 36.817 24.5708 37.6359C24.2755 38.015 24.0172 38.3401 23.9964 38.3583C23.976 38.3764 23.7874 38.6121 23.5772 38.8816C23.3673 39.1512 23.1521 39.418 23.0994 39.4747C23.0462 39.5315 22.9019 39.7163 22.7787 39.8858C22.473 40.3043 22.4918 40.3118 21.9124 39.5405C21.7357 39.3061 21.5482 39.0688 21.4951 39.014C21.4423 38.9593 21.2402 38.7078 21.0466 38.4556C20.8525 38.2034 20.6504 37.9472 20.5973 37.8861C20.5441 37.8251 20.3562 37.5835 20.1799 37.349C20.0032 37.1145 19.8215 36.9064 19.7757 36.8863C19.7044 36.8548 19.0861 37.133 18.9926 37.2387C18.9753 37.2584 18.8016 37.36 18.6076 37.4645C18.4135 37.5689 18.0382 37.7738 17.7737 37.92C17.5088 38.0666 17.1769 38.2456 17.0356 38.3177C16.8943 38.3902 16.7646 38.4659 16.7469 38.486C16.7292 38.5061 16.5636 38.6018 16.3792 38.6992L16.0439 38.8753L15.9703 38.6006C15.9295 38.4493 15.8606 38.2073 15.8167 38.0627C15.7282 37.7723 15.6261 37.416 15.3362 36.3878C15.2292 36.0087 15.101 35.5653 15.0513 35.4026C15.0017 35.2402 14.9428 35.0231 14.9208 34.9206C14.8939 34.7949 14.8507 34.7456 14.7895 34.7697C14.7391 34.7894 14.4734 34.8229 14.1986 34.8438C13.9237 34.8651 13.3235 34.9238 12.8649 34.975C11.3249 35.1464 10.5772 35.2178 10.5557 35.1953C10.5438 35.1831 10.5761 34.7886 10.6273 34.3188C11.0042 30.878 11.0131 30.7393 10.8575 30.7393C10.7917 30.7393 10.6104 30.6983 10.454 30.6487C10.2977 30.5986 9.99667 30.5052 9.78492 30.4406C9.57317 30.3764 9.24091 30.2723 9.04687 30.2097C8.85283 30.1474 8.52058 30.0445 8.30883 29.9811C8.09708 29.918 7.81526 29.8262 7.68205 29.7774C7.54884 29.7285 7.38829 29.6883 7.32515 29.6883C7.09184 29.6883 6.98558 29.5429 7.0853 29.36C7.13458 29.2698 7.25162 29.0479 7.34556 28.8674C7.43911 28.6869 7.58156 28.4209 7.66203 28.2763C7.74211 28.1316 7.93846 27.7624 8.09823 27.4554C8.64416 26.4055 8.72578 26.2538 8.78507 26.1809C8.99259 25.9251 8.93907 25.7695 8.52289 25.4191C8.2992 25.2311 8.04433 25.014 7.95617 24.9367C7.868 24.8591 7.5935 24.6353 7.34633 24.439C7.09954 24.2424 6.85969 24.0433 6.81349 23.9961C6.76729 23.9492 6.55092 23.7714 6.33224 23.6016C5.70353 23.1125 5.59689 22.9915 5.7147 22.9005C6.09277 22.6081 6.65217 22.1608 6.71031 22.1044C6.74842 22.067 6.90473 21.933 7.05758 21.8065C7.21042 21.68 7.36673 21.5468 7.40523 21.5101C7.44335 21.4735 7.60466 21.3407 7.76367 21.215C7.92229 21.0896 8.11017 20.932 8.18062 20.8654C8.25108 20.7984 8.43126 20.6534 8.58064 20.5423C8.94023 20.2758 8.95909 20.1769 8.73156 19.7604C8.62607 19.5673 8.46668 19.2615 8.37697 19.081C8.28765 18.9001 8.06897 18.4863 7.8911 18.1612C7.71362 17.836 7.52381 17.4814 7.46991 17.373C7.41563 17.2646 7.28819 17.0151 7.18655 16.8181C6.97634 16.411 6.98096 16.3811 7.26702 16.3231C7.38136 16.2999 7.60466 16.2388 7.76367 16.1872C7.92229 16.1355 8.35541 16.0039 8.72617 15.8947C9.09654 15.786 9.57317 15.6406 9.78492 15.572C9.99667 15.5034 10.3509 15.3927 10.5722 15.3265L10.975 15.2055L10.9391 14.746C10.8956 14.1927 10.7428 12.6762 10.6211 11.5937C10.5722 11.1605 10.5372 10.8015 10.5438 10.796C10.5603 10.7806 11.6325 10.891 12.8649 11.034C13.4647 11.1042 14.1643 11.1771 14.4195 11.1968L14.8835 11.2327L14.9227 11.0518C14.9447 10.9521 14.9994 10.7523 15.0444 10.608C15.0894 10.4634 15.1722 10.1824 15.2284 9.9838C15.4186 9.3103 15.7259 8.24468 15.8156 7.94793C15.8645 7.78517 15.923 7.5566 15.9457 7.43955C16.0034 7.14083 16.0527 7.13177 16.4381 7.35009C16.6256 7.4565 16.9956 7.65512 17.2601 7.79187C17.525 7.92862 17.7814 8.07128 17.8303 8.10911C17.9408 8.19463 18.9102 8.73532 19.3629 8.96428C19.7591 9.16448 19.7853 9.15502 20.1564 8.67029C20.3085 8.47167 20.4698 8.28527 20.5149 8.2565C20.5599 8.22773 20.5969 8.16113 20.5969 8.10872C20.5969 8.0563 20.62 8.01335 20.6477 8.01335C20.6758 8.01335 20.8036 7.87305 20.9314 7.70162C21.0593 7.5298 21.2387 7.30083 21.3303 7.19246C21.4219 7.08408 21.7061 6.72388 21.9613 6.39206C22.5223 5.66299 22.4368 5.67245 22.9142 6.2892ZM106.546 10.2632C106.423 10.4067 106.419 10.5383 106.402 14.6975L106.385 18.9844L106.05 18.7275C105.695 18.4559 104.882 18.0382 104.559 17.9618C104.453 17.9365 104.237 17.8778 104.078 17.8309C103.391 17.6287 102.31 17.5204 101.309 17.5535C100.217 17.5897 99.6539 17.6898 98.7199 18.0138C97.7744 18.3417 96.4496 19.2737 95.9818 19.9405C95.8698 20.1001 95.7546 20.2301 95.725 20.2301C95.6957 20.2301 95.6719 20.2747 95.6719 20.3287C95.6719 20.383 95.6503 20.4276 95.6237 20.4276C95.5791 20.428 95.457 20.6152 95.2376 21.0183C95.1044 21.2634 94.667 22.3409 94.6243 22.5293C94.6035 22.6195 94.528 22.9151 94.456 23.1858C93.9563 25.07 94.0087 28.9553 94.5558 30.5774C94.605 30.7232 94.6462 30.8855 94.6474 30.9387C94.6485 30.9915 94.7055 31.1531 94.7737 31.2978C94.8418 31.442 94.8984 31.5819 94.8996 31.6083C94.9069 31.7659 95.5467 32.9715 95.6237 32.9722C95.6503 32.9722 95.6719 33.0065 95.6719 33.0479C95.6719 33.5449 98.0978 35.4684 98.7242 35.4684C98.7792 35.4684 98.8758 35.4964 98.9382 35.5307C99.5531 35.8676 102.003 35.9784 103.34 35.7301C104.639 35.4885 105.234 35.2532 105.948 34.6991L106.374 34.3677L106.399 34.7705C106.444 35.4798 106.416 35.4684 108.134 35.4684C109.51 35.4684 109.603 35.4605 109.724 35.3372C109.852 35.2067 109.853 35.1181 109.853 22.6605V10.1154H108.263C106.694 10.1154 106.671 10.1174 106.546 10.2632ZM130.256 10.314C130.047 10.5284 130.092 32.0252 130.303 32.75C130.927 34.8926 132.189 35.6655 135.065 35.6655C136.563 35.6655 136.445 35.801 136.467 34.0658C136.489 32.324 136.544 32.4249 135.55 32.3787C134.662 32.3374 134.31 32.2412 134.017 31.959C133.563 31.5216 133.594 32.3614 133.594 20.6889V10.1808H131.99C130.464 10.1808 130.38 10.1875 130.256 10.314ZM63.9298 11.088C63.6422 11.2078 63.2037 11.5688 63.2037 11.6859C63.2037 11.7253 63.1783 11.7572 63.1471 11.7572C63.0758 11.7572 62.7582 12.4311 62.466 13.2023C62.4044 13.3647 62.3301 13.557 62.3008 13.6291C62.272 13.7016 62.1857 13.9231 62.1095 14.1217C62.0333 14.3204 61.9466 14.5422 61.917 14.6144C61.8873 14.6869 61.8003 14.9083 61.7241 15.107C61.6479 15.3056 61.4843 15.7194 61.3599 16.0268C61.2359 16.3338 61.1108 16.6439 61.0815 16.7164C61.0527 16.7885 60.9664 17.0104 60.8902 17.209C60.8144 17.4077 60.7277 17.6291 60.6977 17.7017C60.6681 17.7738 60.5822 17.9956 60.5071 18.1943C60.432 18.3929 60.3335 18.6439 60.2881 18.7523C60.2141 18.9288 60.0032 19.449 59.8619 19.8033C59.833 19.8755 59.7467 20.0973 59.6701 20.2959C59.5935 20.4946 59.4907 20.7503 59.4422 20.8642C59.3933 20.9781 59.3537 21.1011 59.3537 21.1381C59.3537 21.1748 59.3109 21.2887 59.259 21.3907C59.165 21.5752 59.113 21.7013 58.8443 22.3976C58.7677 22.5962 58.6791 22.8181 58.648 22.8902C58.571 23.0676 58.1509 24.1249 57.9958 24.5324C57.9272 24.7129 57.8468 24.9198 57.8179 24.9923C57.7886 25.0644 57.7155 25.2564 57.655 25.4191C57.5946 25.5815 57.5076 25.8034 57.4622 25.9117C57.3055 26.283 56.927 27.2252 56.7896 27.5866C56.7137 27.7852 56.6279 28.0071 56.5986 28.0792C56.5693 28.1513 56.495 28.3437 56.4334 28.506C56.3718 28.6688 56.2841 28.8903 56.2386 28.9986C56.1066 29.3119 55.7208 30.279 55.5703 30.6735C55.4944 30.8721 55.4086 31.094 55.3793 31.1661C55.3504 31.2386 55.2761 31.4306 55.2145 31.5933C55.1529 31.7557 55.0655 31.9776 55.0201 32.0859C54.9751 32.1943 54.8884 32.4158 54.828 32.5785C54.7675 32.7409 54.6671 32.9923 54.6047 33.1366C54.5423 33.2812 54.3983 33.6359 54.2848 33.9248C54.1716 34.214 54.0345 34.56 53.9806 34.6936C53.9267 34.8276 53.879 35.0495 53.8747 35.1862L53.8674 35.4357L55.4394 35.4542C56.3041 35.4641 57.0714 35.4574 57.1449 35.4392C57.3008 35.4002 57.416 35.1732 57.9122 33.9248C58.0416 33.5996 58.1717 33.2745 58.2017 33.2024C58.2314 33.1303 58.318 32.9084 58.3942 32.7098C58.4705 32.5112 58.5571 32.2893 58.5871 32.2172C58.6175 32.145 58.7169 31.8936 58.8081 31.6587C58.8994 31.4239 59.0002 31.1728 59.0314 31.1007C59.284 30.5218 59.5462 29.8471 59.5462 29.775C59.5462 29.7029 60.4109 29.6907 64.4911 29.7044L69.4357 29.7214L69.5223 29.8853C69.5696 29.976 69.7148 30.3157 69.8449 30.6408C69.975 30.9659 70.1186 31.3206 70.1637 31.429C70.2087 31.5374 70.2961 31.7588 70.3577 31.9216C70.5391 32.4 70.5649 32.4654 70.6965 32.7756C70.7658 32.938 70.8867 33.2335 70.9657 33.4321C71.045 33.6308 71.1462 33.8822 71.1909 33.9906C71.2355 34.0989 71.3676 34.4241 71.4842 34.7129C71.818 35.5413 71.6271 35.4731 73.5613 35.453C75.576 35.4321 75.5013 35.5252 74.7864 33.9248C74.7379 33.8164 74.5954 33.4585 74.4695 33.1295C74.3436 32.8 74.1812 32.3862 74.108 32.2097C73.9382 31.799 73.8951 31.6907 73.7584 31.3305C73.6968 31.1677 73.6094 30.9462 73.5644 30.8378C73.519 30.7295 73.4327 30.5076 73.3723 30.3452C73.3118 30.1825 73.2383 29.9906 73.2087 29.9184C73.1794 29.8459 73.0789 29.5949 72.9857 29.36C72.8926 29.1251 72.7798 28.8445 72.7347 28.7362C72.6901 28.6278 72.6027 28.4059 72.5403 28.2436C72.4783 28.0808 72.3905 27.8593 72.3451 27.7509C72.3001 27.6426 72.2134 27.4207 72.153 27.2583C72.0925 27.0956 72.0194 26.9037 71.9901 26.8311C71.9613 26.759 71.8323 26.4339 71.7037 26.1088C71.4099 25.3667 71.2298 24.9166 71.1254 24.6636C71.0804 24.5553 70.9941 24.3338 70.9333 24.171C70.8729 24.0087 70.7835 23.7797 70.735 23.6623C70.6865 23.5448 70.6072 23.3525 70.5587 23.2351C70.5102 23.1176 70.4205 22.8887 70.3593 22.7263C70.2299 22.3815 70.0359 21.8963 69.8607 21.4782C69.7221 21.1468 69.6828 21.0467 69.5257 20.6242C69.4653 20.4619 69.3787 20.24 69.3336 20.1316C69.2882 20.0232 69.2077 19.8163 69.1546 19.6721C69.0545 19.401 68.6472 18.3783 68.5001 18.0299C68.4547 17.9216 68.3677 17.7001 68.3068 17.5373C68.2464 17.3746 68.1598 17.1531 68.1143 17.0447C68.0693 16.9363 67.9811 16.7145 67.9191 16.5521C67.8572 16.3893 67.7701 16.1679 67.7263 16.0595C67.6824 15.9511 67.568 15.6575 67.4718 15.4073C67.3755 15.157 67.2739 14.9056 67.2462 14.8488C67.2181 14.7921 67.1453 14.6128 67.0841 14.4504C67.0232 14.2877 66.9362 14.0662 66.8908 13.9578C66.8458 13.8494 66.7591 13.6276 66.6987 13.4652C66.6382 13.3024 66.5647 13.1105 66.5355 13.038C66.5058 12.9659 66.4053 12.7152 66.3114 12.4811C65.814 11.2382 64.8811 10.6924 63.9298 11.088ZM64.7017 17.6524C64.7668 17.8238 64.8588 18.0528 64.9061 18.1612C64.9539 18.2695 65.1264 18.6983 65.29 19.1137C65.454 19.529 65.7031 20.1497 65.844 20.493C66.1685 21.2843 66.162 21.2674 66.4411 21.9708C66.7726 22.8063 67.163 23.7726 67.3497 24.2203C67.5603 24.7259 67.6212 24.8772 67.7259 25.1563C67.7867 25.319 67.866 25.509 67.9022 25.5787C67.938 25.6485 67.99 25.7817 68.0173 25.8743C68.0447 25.9673 68.0874 26.095 68.1124 26.158C68.1555 26.2668 67.9611 26.2731 64.5577 26.2731C60.6915 26.2731 60.8428 26.2865 61.0196 25.9602C61.0534 25.8975 61.1866 25.5799 61.3156 25.2548C61.4446 24.9297 61.6883 24.3239 61.8573 23.9086C62.0263 23.4928 62.27 22.8871 62.399 22.562C62.528 22.2368 62.657 21.9117 62.6862 21.8396C62.7151 21.7671 62.7898 21.5752 62.8514 21.4124C62.9134 21.25 63.0227 20.984 63.0947 20.8213C63.1667 20.6589 63.2479 20.4666 63.2753 20.3945C63.3542 20.1848 63.7862 19.1015 63.884 18.8674C64.0772 18.4059 64.1542 18.2155 64.262 17.9314C64.5269 17.2319 64.5388 17.2244 64.7017 17.6524ZM144.15 17.5109C143.323 17.5759 141.891 17.9365 141.134 18.2707C140.579 18.5154 139.937 18.8437 139.883 18.9103C139.865 18.932 139.774 18.9899 139.682 19.0388C139.417 19.1783 139.065 19.5251 139.016 19.695C138.972 19.8463 139.142 20.4264 139.23 20.428C139.254 20.4284 139.33 20.5541 139.401 20.7074C139.471 20.8603 139.546 21.0006 139.568 21.0183C139.59 21.0364 139.729 21.2784 139.877 21.5558C140.263 22.279 140.421 22.3015 141.25 21.7517C141.685 21.4632 141.836 21.3813 142.385 21.1385C143.229 20.7645 143.993 20.6286 145.241 20.6293C145.805 20.6297 146.383 20.6554 146.524 20.6861C146.665 20.7172 146.932 20.774 147.116 20.8126C148.532 21.1097 149.439 22.3302 149.367 23.8428L149.347 24.2696L146.331 24.3082C142.645 24.3555 142.146 24.4339 140.599 25.2146C137.418 26.8185 136.938 32.0339 139.746 34.4938C139.945 34.668 140.127 34.8107 140.152 34.8111C140.177 34.8115 140.325 34.9001 140.482 35.0085C140.639 35.1169 140.789 35.2055 140.815 35.2055C140.842 35.2055 140.982 35.2611 141.127 35.3285C142.654 36.0406 145.604 36.0631 147.23 35.375C147.85 35.1125 148.738 34.5821 148.738 34.4741C148.738 34.443 148.769 34.4174 148.806 34.4174C148.845 34.4174 148.979 34.2991 149.106 34.1549C149.357 33.8688 149.444 33.8302 149.444 34.0051C149.444 35.2907 150.162 35.6686 152.604 35.6666L153.999 35.6655V34.3271C153.999 32.7914 154.022 32.8528 153.423 32.7803C152.73 32.6968 152.786 33.1385 152.759 27.5539C152.733 22.316 152.706 21.9551 152.25 20.7558C151.304 18.2727 148.541 17.1657 144.15 17.5109ZM119.157 17.5684C119.104 17.5818 118.83 17.626 118.547 17.667C117.483 17.8215 116.086 18.3219 115.687 18.6916C115.631 18.7432 115.564 18.7854 115.537 18.7854C115.469 18.7854 114.724 19.3777 114.548 19.5728C114.466 19.6634 114.277 19.8707 114.127 20.0331C113.74 20.4532 113.432 20.9576 112.961 21.9381C111.908 24.1308 111.807 28.7046 112.759 31.1007C113.085 31.922 113.654 32.9726 113.772 32.9726C113.805 32.9726 113.831 33.0057 113.831 33.0467C113.831 33.1433 114.883 34.2203 114.978 34.2203C115.018 34.2203 115.05 34.2463 115.05 34.2779C115.05 34.467 116.688 35.2836 117.617 35.5579C119.064 35.9847 121.347 35.9823 122.879 35.5527C123.733 35.3127 124.803 34.8792 124.985 34.6987C125.031 34.6522 125.095 34.6144 125.127 34.6144C125.295 34.6144 126.266 33.8475 126.841 33.2607C127.732 32.3512 127.736 32.2834 126.938 31.55C126.629 31.2666 126.302 30.9612 126.21 30.8706C125.494 30.1683 125.379 30.1695 124.675 30.8859C123.058 32.5309 120.453 33.0487 118.229 32.1683C117.948 32.0568 117.688 31.9417 117.651 31.9117C117.615 31.8822 117.494 31.7837 117.383 31.6926C117.272 31.602 117.164 31.5275 117.142 31.5275C116.978 31.5275 116.257 30.5545 116.045 30.0461C115.868 29.6229 115.623 28.7448 115.657 28.655C115.681 28.5888 116.872 28.5718 121.508 28.5718C125.839 28.5718 127.383 28.5517 127.539 28.4938C127.826 28.3878 127.839 28.2924 127.79 26.6132C127.737 24.787 127.62 23.9251 127.258 22.6932C127.099 22.1486 126.746 21.3564 126.492 20.9734C126.41 20.8504 126.344 20.7216 126.344 20.6873C126.344 20.6526 126.317 20.6242 126.284 20.6242C126.251 20.6242 126.206 20.5667 126.184 20.4961C125.976 19.825 124.036 18.4067 122.729 17.97C121.84 17.6729 119.704 17.4329 119.157 17.5684ZM84.3463 17.6851C82.993 17.8727 81.6213 18.588 80.8224 19.5227L80.5287 19.8668V19.0321V18.1974L80.3323 18.0938C80.0174 17.9271 77.4533 17.9783 77.2627 18.1549L77.1276 18.2802V26.7657C77.1276 34.9029 77.1326 35.2556 77.245 35.3596C77.4171 35.5188 80.2726 35.524 80.4278 35.3652C80.5175 35.2733 80.5287 34.7129 80.5287 30.188C80.5287 24.2089 80.5294 24.1986 81.095 22.9888C82.3339 20.3385 86.7329 20.1931 87.9684 22.7618C88.5255 23.92 88.5447 24.1679 88.5474 30.1502C88.549 34.5908 88.5609 35.1933 88.6491 35.3226C88.7476 35.4664 88.77 35.4684 90.2695 35.4664L91.7899 35.4645L91.9043 35.3029C92.0544 35.092 92.0413 23.905 91.89 23.0873C91.6817 21.9598 91.3198 20.9935 90.8166 20.2211C90.531 19.7824 89.8168 18.9824 89.7109 18.9824C89.6797 18.9824 89.6374 18.9379 89.617 18.8839C89.5966 18.8295 89.5357 18.7854 89.4818 18.7854C89.4279 18.7854 89.3837 18.7578 89.3837 18.7239C89.3837 18.6904 89.3259 18.6439 89.2555 18.6211C89.1854 18.5982 89.0907 18.5446 89.046 18.5017C88.8978 18.361 88.3884 18.1304 87.6512 17.8711C86.987 17.6374 85.3531 17.5456 84.3463 17.6851ZM103.372 20.774C103.601 20.8595 103.875 20.9765 103.981 21.0341C104.087 21.092 104.265 21.1882 104.377 21.2481C105.044 21.6047 105.914 22.7716 106.275 23.7939C106.495 24.4154 106.499 28.8824 106.281 29.561C105.064 33.3474 100.306 34.026 98.2544 30.705C98.2102 30.6337 98.1447 30.5013 98.1085 30.411C98.0727 30.3208 98.0177 30.1876 97.9865 30.1155C97.6515 29.3415 97.5333 28.4548 97.5353 26.7326C97.5383 24.2487 97.8956 23.0376 98.9763 21.8491C99.9993 20.7243 101.955 20.2459 103.372 20.774ZM120.921 20.787C122.982 21.1239 124.199 22.5048 124.416 24.7523C124.517 25.7982 125.067 25.6855 119.967 25.6658L115.596 25.6489L115.616 25.1235C115.648 24.3432 116.042 23.0329 116.378 22.5955C117.529 21.0956 119.067 20.4835 120.921 20.787ZM149.278 27.1665C149.432 27.2272 149.428 29.7718 149.273 30.2467C149.03 30.9919 148.515 31.7143 148 32.0339C147.584 32.292 147.022 32.5175 146.417 32.6684C145.493 32.8997 143.178 32.7519 142.87 32.4426C142.836 32.4087 142.77 32.3815 142.723 32.3815C142.542 32.3815 141.781 31.7383 141.674 31.4948C141.642 31.4223 141.59 31.319 141.559 31.2646C141.352 30.9045 141.294 30.6341 141.294 30.0284C141.294 28.1986 142.368 27.3289 144.791 27.1953C145.871 27.1358 149.146 27.1149 149.278 27.1665Z" fill="#345CDC"/>
</svg>
