<svg width="12" height="19" viewBox="0 0 12 19" fill="none" xmlns="http://www.w3.org/2000/svg">
<path d="M1.99108 0.205964C2.24723 0.205281 2.50032 0.249539 2.73176 0.335487C2.96319 0.421434 3.16709 0.546884 3.32846 0.702619L11.61 8.75648C11.8621 8.99667 12 9.29794 12 9.60885C12 9.91977 11.8621 10.221 11.61 10.4612L3.03698 18.5151C2.74595 18.7892 2.32774 18.9616 1.87435 18.9943C1.42097 19.027 0.96955 18.9174 0.619402 18.6896C0.269253 18.4617 0.049058 18.1343 0.00725661 17.7794C-0.0345448 17.4245 0.105472 17.0711 0.396505 16.7969L8.06074 9.60214L0.653696 2.40735C0.44403 2.21032 0.310845 1.9704 0.269902 1.71596C0.228958 1.46153 0.281968 1.20324 0.42266 0.97165C0.563352 0.740065 0.785839 0.544879 1.06379 0.409184C1.34175 0.27349 1.66353 0.202968 1.99108 0.205964Z" fill="#111F4D" fill-opacity="0.4"/>
</svg>
