<svg width="26" height="28" viewBox="0 0 26 28" fill="none" xmlns="http://www.w3.org/2000/svg">
<path d="M14.4464 27.8902C12.5648 27.9144 10.6962 27.5696 8.94201 26.8745C7.347 26.239 5.89443 25.2809 4.67172 24.0576C3.47002 22.8377 2.52454 21.3807 1.893 19.7754C1.21666 18.0537 0.878505 16.2131 0.89775 14.3584V14.2825C0.873513 11.6083 1.63126 8.98749 3.07413 6.75508C4.51699 4.52267 6.5794 2.78011 8.99773 1.75015C10.7108 1.01782 12.552 0.649195 14.4092 0.666735C15.4633 0.658734 16.5161 0.74027 17.5569 0.910501C18.4532 1.06097 19.3344 1.29396 20.1896 1.6066C20.9865 1.90078 21.7514 2.27838 22.4721 2.73334C23.1963 3.1936 23.8857 3.70877 24.5342 4.2745L20.962 8.67044C20.4949 8.26331 20.0029 7.88697 19.489 7.54369C19.0047 7.22217 18.4931 6.94568 17.9603 6.71759C17.4081 6.48505 16.8347 6.30903 16.2485 6.19213C15.5811 6.06227 14.9028 5.99967 14.2235 6.00524C13.2236 5.99802 12.2353 6.2231 11.3333 6.66342C10.4451 7.09671 9.64545 7.69776 8.97651 8.43479C8.28881 9.18949 7.74836 10.0711 7.38412 11.0323C6.99913 12.047 6.80552 13.1267 6.8135 14.2148V14.2906C6.8012 15.4284 6.99464 16.5587 7.38412 17.6248C7.74512 18.6109 8.29553 19.5133 9.00305 20.2792C9.69827 21.0299 10.5376 21.6265 11.4686 22.0316C12.4652 22.4559 13.5365 22.667 14.6163 22.6519C16.7271 22.6519 18.507 22.1219 19.9561 21.062V17.27H14.25V12.2972H25.4419V23.719C24.0155 24.9347 22.4209 25.9287 20.7098 26.6686C18.7269 27.5123 16.5944 27.9282 14.4464 27.8902Z" fill="#322B31"/>
</svg>
