<svg width="23" height="27" viewBox="0 0 23 27" fill="none" xmlns="http://www.w3.org/2000/svg">
<path d="M11.4507 12.9114C12.8503 12.9114 13.9243 12.5728 14.6727 11.8957C15.0446 11.5572 15.3383 11.1387 15.5324 10.6703C15.7266 10.2019 15.8164 9.69529 15.7953 9.18715V9.1059C15.7953 7.85276 15.4025 6.9138 14.6169 6.28903C13.8314 5.66427 12.7388 5.35098 11.3393 5.34917H5.70483V12.9006L11.4507 12.9114ZM0.0385453 0.135254H11.8196C15.084 0.135254 17.5876 1.02456 19.3304 2.80316C20.8025 4.30549 21.5386 6.3098 21.5386 8.81609V8.89193C21.5386 11.0208 21.029 12.7552 20.0099 14.095C18.9789 15.4443 17.5938 16.4672 16.0156 17.0446L22.3109 26.4405H15.6759L10.1529 18.0251H5.70483V26.4405H0.0358887L0.0385453 0.135254Z" fill="#322B31"/>
</svg>
