<svg width="35" height="46" viewBox="0 0 35 46" fill="none" xmlns="http://www.w3.org/2000/svg">
<path d="M34.4974 0.106786L6.63126 0H6.59392C4.84318 0 3.20389 0.639345 1.93716 1.84712C0.67071 3.0193 0 4.6178 0 6.28721V39.7128C0 41.3822 0.67071 42.9807 1.93716 44.1529C3.16684 45.3251 4.84318 46 6.59421 46H6.63155L34.4977 45.9288V44.3306C34.4977 36.1251 31.1821 28.6303 25.7429 23.0534C31.4056 17.2278 34.4977 9.73256 34.4977 1.74061V0.106512L34.4974 0.106786ZM14.0453 15.2739C10.7296 13.9952 7.15289 13.1782 3.39032 13.0005V12.9293C8.60605 12.184 12.7409 8.2058 13.4489 3.2326L20.4528 3.26819C20.0429 7.92158 17.7702 12.184 14.045 15.2745L14.0453 15.2739ZM4.32184 4.12029C4.91787 3.55186 5.73737 3.23205 6.59421 3.23205H9.98453C9.35116 6.46464 6.70595 9.02202 3.35326 9.69696V6.28721C3.39032 5.47017 3.72582 4.68871 4.32184 4.12056V4.12029ZM3.39032 33.0702V26.392C12.4433 27.1734 19.6703 34.1002 20.4531 42.7318L13.4492 42.7674C12.7041 37.7589 8.60605 33.816 3.39032 33.0699V33.0702ZM6.63155 42.7674C5.77471 42.7674 4.95521 42.4476 4.35918 41.8792C3.76287 41.311 3.42766 40.5293 3.42766 39.7125V36.3381C6.78063 37.0127 9.42555 39.5348 10.0589 42.7671H6.63155V42.7674ZM31.0704 42.6962L23.8057 42.7318C22.9862 32.3243 14.2687 23.9767 3.35326 23.1596V16.2331C18.2921 17.0501 30.2509 28.488 31.0704 42.6968V42.6962ZM23.3212 20.78C21.481 19.2409 19.47 17.895 17.3233 16.7659C21.1232 13.1785 23.4329 8.41855 23.8428 3.26792L31.1074 3.30351C30.6975 9.83934 27.9782 15.9491 23.3212 20.78Z" fill="url(#paint0_linear)"/>
<defs>
<linearGradient id="paint0_linear" x1="31.1608" y1="47.5543" x2="6.01624" y2="20.7578" gradientUnits="userSpaceOnUse">
<stop stop-color="#5C33F3"/>
<stop offset="1" stop-color="#2CADFF"/>
</linearGradient>
</defs>
</svg>
