<svg width="21" height="19" viewBox="0 0 21 19" fill="none" xmlns="http://www.w3.org/2000/svg">
<path d="M15.4963 2.08926C14.0247 1.34121 12.3642 0.984985 10.5148 0.984985C8.628 0.984985 6.92965 1.37681 5.45768 2.16045C3.986 2.94382 2.85387 4.01222 2.06129 5.36566C1.26871 6.7191 0.891235 8.25052 0.891235 9.95991C0.891235 11.2063 1.11789 12.4174 1.60855 13.4858C2.06129 14.5898 2.70276 15.5158 3.53297 16.335C4.39967 17.1526 5.44222 17.7841 6.58982 18.1868C7.85687 18.6364 9.19942 18.8657 10.5527 18.8637C12.4019 18.8637 14.0623 18.5074 15.5343 17.7594C17.0059 17.0116 18.1381 15.9432 18.9686 14.5898C19.7988 13.2363 20.2139 11.6693 20.2139 9.95991C20.2139 8.21492 19.7988 6.64791 18.9686 5.2942C18.0625 3.90544 16.9307 2.83703 15.4963 2.08926ZM14.2887 13.7349C13.2697 14.7321 11.9868 15.2307 10.4772 15.2307C8.92992 15.2307 7.64668 14.7324 6.62774 13.6993C5.60879 12.6665 5.11813 11.4201 5.11813 9.92432C5.11813 8.3929 5.60879 7.11065 6.5901 6.11344C7.57142 5.08063 8.892 4.58202 10.4772 4.58202C12.0244 4.58202 13.2697 5.08063 14.2887 6.07784C15.3076 7.07506 15.7983 8.35731 15.7983 9.92432C15.8359 11.4557 15.3455 12.7377 14.2887 13.7349Z" fill="#102649"/>
</svg>
