<svg width="62" height="26" viewBox="0 0 62 26" fill="none" xmlns="http://www.w3.org/2000/svg">
<path d="M14.7633 3.3H14.6881C13.2917 1.73298 11.4046 0.949341 8.98921 0.949341C7.7439 0.949341 6.57414 1.16291 5.47963 1.6262C4.38513 2.08894 3.44173 2.6946 2.64916 3.47797C1.85658 4.26161 1.25273 5.22323 0.799996 6.32723C0.34697 7.46683 0.120605 8.64202 0.120605 9.92427C0.120605 10.9927 0.271419 11.9543 0.535708 12.9159C0.837629 13.8419 1.25274 14.6609 1.78103 15.3734C2.3096 16.0855 2.95107 16.6909 3.6681 17.2251C4.38513 17.7593 5.21534 18.1511 6.1211 18.4006C7.02686 18.6498 8.00819 18.7921 8.98921 18.7921C11.4801 18.7921 13.4425 17.9376 14.8389 16.1923H14.8765V18.5074H18.9147V1.16291H14.6878V3.29972H14.7633V3.3ZM13.4048 13.7705C12.3859 14.7321 11.1406 15.2307 9.70624 15.2307C8.159 15.2307 6.87605 14.7324 5.89474 13.7707C4.91342 12.8091 4.42277 11.5269 4.42277 9.99546C4.42277 9.1765 4.57387 8.42845 4.83787 7.75186C5.10216 7.07501 5.47963 6.50521 5.97029 6.0422C6.45543 5.58265 7.03274 5.2194 7.66834 4.97379C8.3101 4.72463 8.98921 4.58224 9.74387 4.58224C11.2538 4.58224 12.4991 5.11617 13.4804 6.14926C14.4617 7.18207 14.9521 8.46404 14.9521 9.99546C14.9521 11.5269 14.4238 12.8091 13.4048 13.7707V13.7705ZM40.2376 5.29443C39.8599 4.61784 39.4071 4.04777 38.8788 3.51357C38.3505 2.97964 37.7467 2.51635 37.1049 2.1248C36.4635 1.73298 35.7464 1.44795 34.9541 1.26997C34.1613 1.092 33.369 0.949614 32.5385 0.949614C30.0855 0.949614 28.1231 1.73271 26.6891 3.3H26.6135V1.19878H22.3866V25.5591H26.6135V16.4059H26.6512C28.0476 18.0085 29.9723 18.8275 32.4632 18.8275C33.4822 18.8275 34.4256 18.6851 35.3313 18.4359C36.2371 18.1511 37.0673 17.7591 37.7843 17.2604C38.5014 16.7621 39.1428 16.1209 39.6714 15.4087C40.1997 14.6962 40.6148 13.8773 40.9167 12.9512C41.2186 12.0252 41.3318 11.028 41.3318 9.95959C41.3318 9.10476 41.2187 8.28579 41.0299 7.46656C40.8412 6.64759 40.6148 5.97073 40.2373 5.29415L40.2376 5.29443ZM35.6333 13.7707C34.6519 14.7321 33.369 15.2307 31.8215 15.2307C30.3119 15.2307 29.0289 14.7324 28.01 13.7707C26.991 12.8091 26.4627 11.5269 26.4627 9.99546C26.4627 8.42845 26.9531 7.14647 27.972 6.11339C28.9534 5.08058 30.2742 4.58197 31.8215 4.58197C33.3311 4.58197 34.5764 5.08058 35.5953 6.07779C36.6143 7.07501 37.1049 8.39285 37.1049 9.99546C37.1049 11.5269 36.6146 12.8091 35.6333 13.7707ZM57.4086 3.3H57.3334C55.937 1.73298 54.0499 0.949341 51.6348 0.949341C50.3892 0.949341 49.2194 1.16291 48.1249 1.6262C47.0307 2.08894 46.087 2.6946 45.2944 3.47797C44.5019 4.26161 43.898 5.22323 43.4453 6.32723C42.9923 7.46683 42.7659 8.64202 42.7659 9.92427C42.7659 10.9927 42.917 11.9543 43.181 12.9159C43.4829 13.8419 43.898 14.6609 44.4263 15.3734C44.9549 16.0855 45.5964 16.6909 46.3137 17.2251C47.0304 17.7593 47.8606 18.1511 48.7664 18.4006C49.6724 18.6498 50.6535 18.7921 51.6348 18.7921C54.1254 18.7921 56.0878 17.9376 57.4842 16.1923H57.5218V18.5074H61.56V1.16291H57.3334V3.29972H57.4086V3.3ZM56.0501 13.7705C55.0312 14.7321 53.7859 15.2307 52.3518 15.2307C50.8043 15.2307 49.5213 14.7324 48.54 13.7707C47.5587 12.8091 47.0683 11.5269 47.0683 9.99546C47.0683 9.1765 47.2191 8.42845 47.4834 7.75186C47.7474 7.07501 48.1249 6.50521 48.6153 6.0422C49.1005 5.58262 49.6779 5.21937 50.3136 4.97379C50.9554 4.72463 51.6348 4.58224 52.3892 4.58224C53.8991 4.58224 55.1444 5.11617 56.1257 6.14926C57.107 7.18207 57.5974 8.46404 57.5974 9.99546C57.5974 11.5269 57.0691 12.8091 56.0501 13.7707V13.7705Z" fill="#102649"/>
</svg>
